<mxfile host="app.diagrams.net" modified="2024-02-17T22:41:37.938Z" agent="Mozilla/5.0 (Windows NT 10.0; Win64; x64) AppleWebKit/537.36 (KHTML, like Gecko) Chrome/121.0.0.0 Safari/537.36" etag="Ms1Z9dHJeWMfKEnsfxaF" version="23.1.5" type="device">
  <diagram name="Page-1" id="FKpIsAbAf-GlrV4egF0f">
    <mxGraphModel dx="2090" dy="1006" grid="1" gridSize="10" guides="1" tooltips="1" connect="1" arrows="1" fold="1" page="0" pageScale="1" pageWidth="850" pageHeight="1100" math="0" shadow="0">
      <root>
        <mxCell id="0" />
        <mxCell id="1" parent="0" />
      </root>
    </mxGraphModel>
  </diagram>
</mxfile>
